<?xml version="1.0" standalone="no"?>
<!DOCTYPE svg PUBLIC "-//W3C//DTD SVG 20010904//EN"
 "http://www.w3.org/TR/2001/REC-SVG-20010904/DTD/svg10.dtd">
<svg version="1.0" xmlns="http://www.w3.org/2000/svg"
 width="512.000000pt" height="512.000000pt" viewBox="0 0 512.000000 512.000000"
 preserveAspectRatio="xMidYMid meet">
<metadata>
Created by potrace 1.14, written by Peter Selinger 2001-2017
</metadata>
<g transform="translate(0.000000,512.000000) scale(0.100000,-0.100000)"
fill="#000000" stroke="none">
<path d="M2003 5104 c-156 -43 -273 -167 -313 -331 l-12 -53 -109 0 c-60 0
-111 0 -114 0 -3 0 -19 -7 -36 -15 -34 -18 -59 -67 -59 -115 l0 -30 -402 -1
c-222 -1 -406 -1 -410 0 -23 3 -125 -34 -176 -63 -99 -59 -166 -150 -198 -269
-20 -76 -20 -3817 0 -3892 33 -122 118 -233 216 -283 109 -55 17 -52 1830 -49
1566 3 1680 4 1750 21 505 120 857 475 966 973 22 101 26 332 8 438 -44 264
-161 491 -348 679 -127 128 -282 228 -450 291 l-61 23 -5 893 c-4 666 -9 903
-18 929 -39 113 -128 218 -224 263 -93 43 -136 47 -558 47 l-400 0 0 30 c0 51
-24 95 -63 113 -26 13 -63 17 -146 17 l-111 0 -6 28 c-23 104 -40 142 -91 210
-37 49 -124 110 -189 134 -74 26 -199 32 -271 12z m201 -343 c26 -27 31 -39
31 -81 0 -43 -5 -54 -33 -82 -28 -28 -39 -33 -82 -33 -43 0 -54 5 -82 33 -28
28 -33 39 -33 81 0 52 25 92 70 112 37 16 96 3 129 -30z"/>
</g>
</svg>
